<mxfile host="Electron" modified="2024-06-17T14:18:45.914Z" agent="Mozilla/5.0 (Windows NT 10.0; Win64; x64) AppleWebKit/537.36 (KHTML, like Gecko) draw.io/24.5.3 Chrome/124.0.6367.207 Electron/30.0.6 Safari/537.36" etag="PBB4E4ZbW-eD6yyd-y26" version="24.5.3" type="device">
  <diagram id="C5RBs43oDa-KdzZeNtuy" name="Page-1">
    <mxGraphModel dx="666" dy="460" grid="1" gridSize="12" guides="1" tooltips="1" connect="1" arrows="1" fold="1" page="1" pageScale="1" pageWidth="827" pageHeight="1169" math="0" shadow="0">
      <root>
        <mxCell id="WIyWlLk6GJQsqaUBKTNV-0" />
        <mxCell id="WIyWlLk6GJQsqaUBKTNV-1" parent="WIyWlLk6GJQsqaUBKTNV-0" />
        <mxCell id="g-pqYLRQjRwACwosyDvG-9" value="" style="group" vertex="1" connectable="0" parent="WIyWlLk6GJQsqaUBKTNV-1">
          <mxGeometry x="156" y="306" width="150" height="140" as="geometry" />
        </mxCell>
        <mxCell id="g-pqYLRQjRwACwosyDvG-3" value="" style="rounded=0;whiteSpace=wrap;html=1;" vertex="1" parent="g-pqYLRQjRwACwosyDvG-9">
          <mxGeometry width="140" height="140" as="geometry" />
        </mxCell>
        <mxCell id="g-pqYLRQjRwACwosyDvG-14" value="while i &amp;lt;= 5" style="text;html=1;align=center;verticalAlign=middle;whiteSpace=wrap;rounded=0;" vertex="1" parent="g-pqYLRQjRwACwosyDvG-9">
          <mxGeometry width="70" height="30" as="geometry" />
        </mxCell>
        <mxCell id="g-pqYLRQjRwACwosyDvG-25" value="" style="rounded=0;whiteSpace=wrap;html=1;" vertex="1" parent="g-pqYLRQjRwACwosyDvG-9">
          <mxGeometry x="30" y="50" width="110" height="90" as="geometry" />
        </mxCell>
        <mxCell id="g-pqYLRQjRwACwosyDvG-15" value="result = result * i" style="text;html=1;align=center;verticalAlign=middle;whiteSpace=wrap;rounded=0;" vertex="1" parent="g-pqYLRQjRwACwosyDvG-9">
          <mxGeometry x="40" y="50" width="90" height="30" as="geometry" />
        </mxCell>
        <mxCell id="g-pqYLRQjRwACwosyDvG-23" value="" style="rounded=0;whiteSpace=wrap;html=1;" vertex="1" parent="g-pqYLRQjRwACwosyDvG-9">
          <mxGeometry x="30" y="90" width="110" height="50" as="geometry" />
        </mxCell>
        <mxCell id="g-pqYLRQjRwACwosyDvG-18" value="i = i + 1" style="text;html=1;align=center;verticalAlign=middle;whiteSpace=wrap;rounded=0;" vertex="1" parent="g-pqYLRQjRwACwosyDvG-9">
          <mxGeometry x="40" y="100" width="90" height="30" as="geometry" />
        </mxCell>
        <mxCell id="g-pqYLRQjRwACwosyDvG-12" value="i = 1" style="rounded=0;whiteSpace=wrap;html=1;" vertex="1" parent="WIyWlLk6GJQsqaUBKTNV-1">
          <mxGeometry x="156" y="206" width="140" height="50" as="geometry" />
        </mxCell>
        <mxCell id="g-pqYLRQjRwACwosyDvG-13" value="开始" style="rounded=0;whiteSpace=wrap;html=1;" vertex="1" parent="WIyWlLk6GJQsqaUBKTNV-1">
          <mxGeometry x="156" y="156" width="140" height="50" as="geometry" />
        </mxCell>
        <mxCell id="g-pqYLRQjRwACwosyDvG-16" value="result = 1" style="rounded=0;whiteSpace=wrap;html=1;" vertex="1" parent="WIyWlLk6GJQsqaUBKTNV-1">
          <mxGeometry x="156" y="256" width="140" height="50" as="geometry" />
        </mxCell>
        <mxCell id="g-pqYLRQjRwACwosyDvG-17" value="输出result" style="rounded=0;whiteSpace=wrap;html=1;" vertex="1" parent="WIyWlLk6GJQsqaUBKTNV-1">
          <mxGeometry x="156" y="446" width="140" height="50" as="geometry" />
        </mxCell>
        <mxCell id="g-pqYLRQjRwACwosyDvG-26" value="结束" style="rounded=0;whiteSpace=wrap;html=1;" vertex="1" parent="WIyWlLk6GJQsqaUBKTNV-1">
          <mxGeometry x="156" y="496" width="140" height="50" as="geometry" />
        </mxCell>
        <mxCell id="g-pqYLRQjRwACwosyDvG-27" value="year = 1500" style="rounded=0;whiteSpace=wrap;html=1;" vertex="1" parent="WIyWlLk6GJQsqaUBKTNV-1">
          <mxGeometry x="320" y="216" width="364" height="34" as="geometry" />
        </mxCell>
        <mxCell id="g-pqYLRQjRwACwosyDvG-69" value="" style="rounded=0;whiteSpace=wrap;html=1;pointerEvents=0;align=center;verticalAlign=top;fontFamily=Helvetica;fontSize=12;fontColor=default;fillColor=default;gradientColor=none;" vertex="1" parent="WIyWlLk6GJQsqaUBKTNV-1">
          <mxGeometry x="320" y="250" width="364" height="254" as="geometry" />
        </mxCell>
        <mxCell id="g-pqYLRQjRwACwosyDvG-62" value="开始" style="rounded=0;whiteSpace=wrap;html=1;" vertex="1" parent="WIyWlLk6GJQsqaUBKTNV-1">
          <mxGeometry x="320" y="182" width="364" height="34" as="geometry" />
        </mxCell>
        <mxCell id="g-pqYLRQjRwACwosyDvG-127" value="" style="rounded=0;whiteSpace=wrap;html=1;" vertex="1" parent="WIyWlLk6GJQsqaUBKTNV-1">
          <mxGeometry x="348" y="390" width="168.25" height="78" as="geometry" />
        </mxCell>
        <mxCell id="g-pqYLRQjRwACwosyDvG-66" value="while year &amp;lt;= 2500" style="text;html=1;align=center;verticalAlign=middle;resizable=0;points=[];autosize=1;strokeColor=none;fillColor=none;fontFamily=Helvetica;fontSize=12;fontColor=default;" vertex="1" parent="WIyWlLk6GJQsqaUBKTNV-1">
          <mxGeometry x="320" y="250" width="120" height="30" as="geometry" />
        </mxCell>
        <mxCell id="g-pqYLRQjRwACwosyDvG-70" value="" style="rounded=0;whiteSpace=wrap;html=1;pointerEvents=0;align=center;verticalAlign=top;fontFamily=Helvetica;fontSize=12;fontColor=default;fillColor=none;gradientColor=none;" vertex="1" parent="WIyWlLk6GJQsqaUBKTNV-1">
          <mxGeometry x="348" y="280" width="336" height="224" as="geometry" />
        </mxCell>
        <mxCell id="g-pqYLRQjRwACwosyDvG-72" value="" style="rounded=0;whiteSpace=wrap;html=1;pointerEvents=0;align=center;verticalAlign=top;fontFamily=Helvetica;fontSize=12;fontColor=default;fillColor=none;gradientColor=none;" vertex="1" parent="WIyWlLk6GJQsqaUBKTNV-1">
          <mxGeometry x="348" y="280" width="336" height="60" as="geometry" />
        </mxCell>
        <mxCell id="g-pqYLRQjRwACwosyDvG-74" value="year % 4 == 0" style="text;html=1;align=center;verticalAlign=middle;resizable=0;points=[];autosize=1;strokeColor=none;fillColor=none;fontFamily=Helvetica;fontSize=12;fontColor=default;" vertex="1" parent="WIyWlLk6GJQsqaUBKTNV-1">
          <mxGeometry x="479.99999999999994" y="280" width="100" height="30" as="geometry" />
        </mxCell>
        <mxCell id="g-pqYLRQjRwACwosyDvG-75" value="Y" style="text;html=1;align=center;verticalAlign=middle;resizable=0;points=[];autosize=1;strokeColor=none;fillColor=none;fontFamily=Helvetica;fontSize=12;fontColor=default;" vertex="1" parent="WIyWlLk6GJQsqaUBKTNV-1">
          <mxGeometry x="352" y="313" width="36" height="24" as="geometry" />
        </mxCell>
        <mxCell id="g-pqYLRQjRwACwosyDvG-76" value="N" style="text;html=1;align=center;verticalAlign=middle;resizable=0;points=[];autosize=1;strokeColor=none;fillColor=none;fontFamily=Helvetica;fontSize=12;fontColor=default;" vertex="1" parent="WIyWlLk6GJQsqaUBKTNV-1">
          <mxGeometry x="642" y="313" width="36" height="24" as="geometry" />
        </mxCell>
        <mxCell id="g-pqYLRQjRwACwosyDvG-77" value="" style="rounded=0;whiteSpace=wrap;html=1;pointerEvents=0;align=center;verticalAlign=top;fontFamily=Helvetica;fontSize=12;fontColor=default;fillColor=none;gradientColor=none;" vertex="1" parent="WIyWlLk6GJQsqaUBKTNV-1">
          <mxGeometry x="348" y="340" width="252" height="50" as="geometry" />
        </mxCell>
        <mxCell id="g-pqYLRQjRwACwosyDvG-82" value="&lt;font style=&quot;font-size: 10px;&quot;&gt;year % 100 == 0&lt;/font&gt;" style="text;html=1;align=center;verticalAlign=middle;resizable=0;points=[];autosize=1;strokeColor=none;fillColor=none;fontFamily=Helvetica;fontSize=12;fontColor=default;" vertex="1" parent="WIyWlLk6GJQsqaUBKTNV-1">
          <mxGeometry x="440" y="335" width="100" height="30" as="geometry" />
        </mxCell>
        <mxCell id="g-pqYLRQjRwACwosyDvG-83" value="Y" style="text;html=1;align=center;verticalAlign=middle;resizable=0;points=[];autosize=1;strokeColor=none;fillColor=none;fontFamily=Helvetica;fontSize=12;fontColor=default;" vertex="1" parent="WIyWlLk6GJQsqaUBKTNV-1">
          <mxGeometry x="347" y="368" width="36" height="24" as="geometry" />
        </mxCell>
        <mxCell id="g-pqYLRQjRwACwosyDvG-84" value="N" style="text;html=1;align=center;verticalAlign=middle;resizable=0;points=[];autosize=1;strokeColor=none;fillColor=none;fontFamily=Helvetica;fontSize=12;fontColor=default;" vertex="1" parent="WIyWlLk6GJQsqaUBKTNV-1">
          <mxGeometry x="564" y="369.13" width="36" height="24" as="geometry" />
        </mxCell>
        <mxCell id="g-pqYLRQjRwACwosyDvG-87" value="&lt;span style=&quot;text-wrap: nowrap;&quot;&gt;&lt;font style=&quot;font-size: 10px;&quot;&gt;输出year不是闰年&lt;/font&gt;&lt;/span&gt;" style="rounded=0;whiteSpace=wrap;html=1;" vertex="1" parent="WIyWlLk6GJQsqaUBKTNV-1">
          <mxGeometry x="600" y="340" width="84" height="128" as="geometry" />
        </mxCell>
        <mxCell id="g-pqYLRQjRwACwosyDvG-128" value="" style="rounded=0;whiteSpace=wrap;html=1;" vertex="1" parent="WIyWlLk6GJQsqaUBKTNV-1">
          <mxGeometry x="348" y="390" width="168" height="78" as="geometry" />
        </mxCell>
        <mxCell id="g-pqYLRQjRwACwosyDvG-88" value="" style="rounded=0;whiteSpace=wrap;html=1;" vertex="1" parent="WIyWlLk6GJQsqaUBKTNV-1">
          <mxGeometry x="432" y="432" width="84" height="36" as="geometry" />
        </mxCell>
        <mxCell id="g-pqYLRQjRwACwosyDvG-105" value="" style="triangle;whiteSpace=wrap;html=1;pointerEvents=0;align=center;verticalAlign=top;fontFamily=Helvetica;fontSize=12;fontColor=default;fillColor=default;gradientColor=none;rotation=90;" vertex="1" parent="WIyWlLk6GJQsqaUBKTNV-1">
          <mxGeometry x="412.45" y="327.89" width="42" height="166.22" as="geometry" />
        </mxCell>
        <mxCell id="g-pqYLRQjRwACwosyDvG-101" value="&lt;span style=&quot;text-wrap: nowrap;&quot;&gt;&lt;font style=&quot;font-size: 10px;&quot;&gt;输出year是闰年&lt;/font&gt;&lt;/span&gt;" style="rounded=0;whiteSpace=wrap;html=1;" vertex="1" parent="WIyWlLk6GJQsqaUBKTNV-1">
          <mxGeometry x="516" y="390" width="84" height="78" as="geometry" />
        </mxCell>
        <mxCell id="g-pqYLRQjRwACwosyDvG-103" value="&lt;font style=&quot;font-size: 10px;&quot;&gt;year % 400 == 0&lt;/font&gt;" style="text;html=1;align=center;verticalAlign=middle;resizable=0;points=[];autosize=1;strokeColor=none;fillColor=none;fontFamily=Helvetica;fontSize=12;fontColor=default;" vertex="1" parent="WIyWlLk6GJQsqaUBKTNV-1">
          <mxGeometry x="384.34000000000003" y="386" width="96" height="24" as="geometry" />
        </mxCell>
        <mxCell id="g-pqYLRQjRwACwosyDvG-104" value="Y" style="text;html=1;align=center;verticalAlign=middle;resizable=0;points=[];autosize=1;strokeColor=none;fillColor=none;fontFamily=Helvetica;fontSize=12;fontColor=default;" vertex="1" parent="WIyWlLk6GJQsqaUBKTNV-1">
          <mxGeometry x="347" y="410" width="36" height="24" as="geometry" />
        </mxCell>
        <mxCell id="g-pqYLRQjRwACwosyDvG-106" value="N" style="text;html=1;align=center;verticalAlign=middle;resizable=0;points=[];autosize=1;strokeColor=none;fillColor=none;fontFamily=Helvetica;fontSize=12;fontColor=default;" vertex="1" parent="WIyWlLk6GJQsqaUBKTNV-1">
          <mxGeometry x="484" y="410" width="36" height="24" as="geometry" />
        </mxCell>
        <mxCell id="g-pqYLRQjRwACwosyDvG-119" value="year = year +1" style="text;html=1;align=center;verticalAlign=middle;whiteSpace=wrap;rounded=0;fontFamily=Helvetica;fontSize=12;fontColor=default;" vertex="1" parent="WIyWlLk6GJQsqaUBKTNV-1">
          <mxGeometry x="460" y="470" width="80" height="30" as="geometry" />
        </mxCell>
        <mxCell id="g-pqYLRQjRwACwosyDvG-121" value="&lt;font style=&quot;font-size: 10px;&quot;&gt;&lt;span style=&quot;text-wrap: nowrap;&quot;&gt;&lt;font style=&quot;font-size: 10px;&quot;&gt;输出&lt;/font&gt;&lt;/span&gt;&lt;span style=&quot;text-wrap: nowrap; background-color: initial;&quot;&gt;&lt;font style=&quot;font-size: 10px;&quot;&gt;不是闰年&lt;/font&gt;&lt;/span&gt;&lt;/font&gt;" style="text;html=1;align=center;verticalAlign=middle;whiteSpace=wrap;rounded=0;fontFamily=Helvetica;fontSize=12;fontColor=default;" vertex="1" parent="WIyWlLk6GJQsqaUBKTNV-1">
          <mxGeometry x="443.25" y="430" width="61.5" height="38" as="geometry" />
        </mxCell>
        <mxCell id="g-pqYLRQjRwACwosyDvG-123" value="" style="rounded=0;whiteSpace=wrap;html=1;" vertex="1" parent="WIyWlLk6GJQsqaUBKTNV-1">
          <mxGeometry x="348" y="432" width="84" height="36" as="geometry" />
        </mxCell>
        <mxCell id="g-pqYLRQjRwACwosyDvG-122" value="&lt;font style=&quot;font-size: 10px;&quot;&gt;&lt;span style=&quot;text-wrap: nowrap;&quot;&gt;&lt;font style=&quot;font-size: 10px;&quot;&gt;输出&lt;/font&gt;&lt;/span&gt;&lt;span style=&quot;text-wrap: nowrap; background-color: initial;&quot;&gt;&lt;font style=&quot;font-size: 10px;&quot;&gt;是闰年&lt;/font&gt;&lt;/span&gt;&lt;/font&gt;" style="text;html=1;align=center;verticalAlign=middle;whiteSpace=wrap;rounded=0;fontFamily=Helvetica;fontSize=12;fontColor=default;" vertex="1" parent="WIyWlLk6GJQsqaUBKTNV-1">
          <mxGeometry x="352" y="430" width="73.5" height="38" as="geometry" />
        </mxCell>
        <mxCell id="g-pqYLRQjRwACwosyDvG-124" value="结束" style="rounded=0;whiteSpace=wrap;html=1;" vertex="1" parent="WIyWlLk6GJQsqaUBKTNV-1">
          <mxGeometry x="320" y="504" width="364" height="36" as="geometry" />
        </mxCell>
        <mxCell id="g-pqYLRQjRwACwosyDvG-125" value="" style="endArrow=none;html=1;rounded=0;fontFamily=Helvetica;fontSize=12;fontColor=default;exitX=0;exitY=0;exitDx=0;exitDy=0;entryX=1;entryY=0;entryDx=0;entryDy=0;" edge="1" parent="WIyWlLk6GJQsqaUBKTNV-1" source="g-pqYLRQjRwACwosyDvG-72" target="g-pqYLRQjRwACwosyDvG-72">
          <mxGeometry width="50" height="50" relative="1" as="geometry">
            <mxPoint x="480" y="338" as="sourcePoint" />
            <mxPoint x="530" y="288" as="targetPoint" />
            <Array as="points">
              <mxPoint x="600" y="340" />
            </Array>
          </mxGeometry>
        </mxCell>
        <mxCell id="g-pqYLRQjRwACwosyDvG-129" value="" style="endArrow=none;html=1;rounded=0;fontFamily=Helvetica;fontSize=12;fontColor=default;exitX=0;exitY=0;exitDx=0;exitDy=0;entryX=1;entryY=0;entryDx=0;entryDy=0;" edge="1" parent="WIyWlLk6GJQsqaUBKTNV-1" source="g-pqYLRQjRwACwosyDvG-77" target="g-pqYLRQjRwACwosyDvG-77">
          <mxGeometry width="50" height="50" relative="1" as="geometry">
            <mxPoint x="540" y="410" as="sourcePoint" />
            <mxPoint x="590" y="360" as="targetPoint" />
            <Array as="points">
              <mxPoint x="517" y="390" />
            </Array>
          </mxGeometry>
        </mxCell>
        <mxCell id="g-pqYLRQjRwACwosyDvG-130" value="计算阶乘" style="text;html=1;align=center;verticalAlign=middle;resizable=0;points=[];autosize=1;strokeColor=none;fillColor=none;fontFamily=Helvetica;fontSize=12;fontColor=default;" vertex="1" parent="WIyWlLk6GJQsqaUBKTNV-1">
          <mxGeometry x="190" y="561" width="72" height="24" as="geometry" />
        </mxCell>
        <mxCell id="g-pqYLRQjRwACwosyDvG-131" value="计算闰年" style="text;html=1;align=center;verticalAlign=middle;resizable=0;points=[];autosize=1;strokeColor=none;fillColor=none;fontFamily=Helvetica;fontSize=12;fontColor=default;" vertex="1" parent="WIyWlLk6GJQsqaUBKTNV-1">
          <mxGeometry x="464" y="561" width="72" height="24" as="geometry" />
        </mxCell>
      </root>
    </mxGraphModel>
  </diagram>
</mxfile>
